<svg version="1.1" id="Layer_1" xmlns="http://www.w3.org/2000/svg" xmlns:xlink="http://www.w3.org/1999/xlink" x="0px" y="0px"
	 width="100%" viewBox="0 0 266 78"  xml:space="preserve">
<path fill="#000000" opacity="1.000000" stroke="none" 
	d="
M1057.000000,1201.000000 
	C704.666687,1201.000000 352.833344,1201.000000 1.000000,1201.000000 
	C1.000000,801.000000 1.000000,401.000000 1.000000,1.000000 
	C401.000000,1.000000 801.000000,1.000000 1201.000000,1.000000 
	C1201.000000,401.000000 1201.000000,801.000000 1201.000000,1201.000000 
	C1153.166626,1201.000000 1105.333374,1201.000000 1057.000000,1201.000000 
M193.608719,640.997742 
	C208.318237,644.308655 223.185654,646.227417 238.289200,645.996094 
	C259.031494,645.678406 279.773560,645.141296 300.515259,645.159973 
	C304.726959,645.163757 306.629272,642.985596 306.759674,640.125671 
	C307.251007,629.350647 308.615906,618.663330 304.297485,607.919067 
	C301.504639,600.970459 299.508270,593.161316 301.826538,585.102722 
	C302.808411,581.689575 302.294952,577.846252 302.461090,574.198486 
	C297.029877,580.358398 290.485657,577.500427 284.790558,577.927307 
	C277.817078,578.450012 273.764099,574.460693 272.185028,567.980835 
	C269.293274,570.187317 267.025787,573.279358 264.390137,573.633728 
	C259.508331,574.290344 257.118835,575.939880 257.523621,580.853577 
	C250.569016,581.160217 250.224854,581.459534 249.973160,585.376343 
	C246.244370,589.157898 243.782974,591.875732 241.084564,594.333191 
	C237.904572,597.229309 234.519272,599.900024 231.157959,602.723022 
	C225.491318,601.222900 224.300507,602.133057 223.847870,607.658508 
	C222.022232,607.440430 219.801514,606.472900 218.472290,607.180359 
	C216.464493,608.248962 215.078384,610.485657 213.830139,611.801941 
	C211.941513,611.622498 209.324127,610.600952 207.534760,611.410278 
	C205.543411,612.310852 202.478516,614.118469 205.515549,618.712219 
	C199.447815,619.174133 193.995407,620.143250 188.606735,619.867371 
	C180.865784,619.471130 175.638550,626.180481 176.124573,632.719177 
	C176.234375,634.196228 177.618530,636.335205 178.923553,636.829285 
	C183.410721,638.528564 188.122910,639.633545 193.608719,640.997742 
M886.926819,639.594482 
	C895.942505,634.154907 899.036011,625.814087 897.925293,615.840271 
	C896.973816,607.296265 890.946594,602.935669 883.931946,600.763977 
	C887.026611,597.636047 890.517944,594.917114 892.979553,591.464172 
	C899.853516,581.822144 895.552612,563.188293 878.384033,561.329163 
	C863.876465,559.758057 849.063782,561.005554 834.790649,561.005554 
	C834.790649,588.212158 834.790649,616.003174 834.790649,644.000000 
	C846.388733,644.000000 857.224182,644.457275 867.995361,643.822815 
	C874.135864,643.461121 880.171509,641.317871 886.926819,639.594482 
M454.328796,644.005554 
	C457.003937,642.978149 459.883514,642.297974 462.319031,640.863647 
	C473.132080,634.495605 475.115753,624.182556 473.923553,612.881653 
	C473.095490,605.032654 467.809082,600.319031 460.897522,597.460571 
	C454.402557,594.774353 447.667847,592.665405 441.186981,589.948547 
	C437.174469,588.266602 434.451965,584.683044 436.249023,580.529602 
	C437.550232,577.522156 440.664062,574.509216 443.701202,573.212524 
	C449.419312,570.771301 454.910797,573.104614 459.907959,576.401489 
	C464.411377,579.372681 467.391357,578.622803 469.992920,573.881348 
	C471.125488,571.817200 472.101379,569.667053 473.111237,567.630981 
	C463.059235,560.333069 458.622375,558.672974 445.127960,559.078308 
	C427.330078,559.612976 417.081116,572.460144 420.400085,590.229980 
	C421.181580,594.414062 424.792389,599.052368 428.435059,601.484497 
	C433.633270,604.955200 440.035980,606.648132 445.971588,608.979858 
	C450.896210,610.914490 456.750854,612.103760 457.890045,618.251648 
	C459.867828,628.925171 448.606659,633.551697 442.001282,631.385498 
	C437.357300,629.862488 433.180603,626.948914 428.571960,625.268555 
	C426.461700,624.499268 422.927032,624.233215 421.600098,625.446655 
	C419.048553,627.780090 417.609375,631.329956 415.752899,634.304749 
	C417.694336,635.809204 419.036163,637.000488 420.520477,637.974854 
	C430.637054,644.615723 441.604156,646.765686 454.328796,644.005554 
M685.000000,620.730652 
	C685.000000,619.587585 685.000000,618.444519 685.000000,615.395508 
	C687.920898,617.470886 690.203064,618.399048 691.437988,620.091248 
	C696.475098,626.993958 701.116333,634.184570 706.094910,641.131836 
	C707.013550,642.413757 708.772278,643.774597 710.224182,643.870178 
	C715.296143,644.204041 720.403687,643.999512 726.116882,643.999512 
	C718.223755,632.489990 710.689026,621.503174 703.148682,610.504089 
	C710.355408,601.794739 717.562073,593.085388 725.079956,584.000000 
	C720.042908,584.000000 715.678528,583.671692 711.398621,584.130432 
	C709.053955,584.381653 706.391357,585.468811 704.690918,587.056213 
	C701.996399,589.571655 700.335327,593.205994 697.608765,595.672485 
	C693.521057,599.370300 691.975403,605.998657 684.891357,606.938660 
	C684.891357,590.222656 684.891357,573.785767 684.891357,557.222046 
	C679.488403,557.222046 674.417419,557.222046 669.218872,557.222046 
	C669.218872,586.178223 669.218872,614.911926 669.218872,643.778381 
	C674.510742,643.778381 679.581726,643.778381 685.000000,643.778381 
	C685.000000,636.269226 685.000000,628.976074 685.000000,620.730652 
M965.000000,612.574951 
	C963.884216,589.438904 948.059570,579.416321 927.598999,583.468384 
	C905.619080,587.821350 902.633423,605.496338 905.699768,622.966980 
	C907.981018,635.964783 917.438171,643.176208 930.240967,644.825134 
	C940.013000,646.083679 949.484985,644.095032 956.774292,636.644226 
	C963.008118,630.272339 965.059265,622.217773 965.000000,612.574951 
M777.999023,637.500122 
	C778.652893,636.591125 779.884705,635.666077 779.859985,634.776001 
	C779.757019,631.066833 773.392517,627.082031 770.002686,628.499146 
	C766.914612,629.790039 764.013367,631.616882 760.841858,632.603210 
	C750.261108,635.893921 739.572876,626.651978 741.665588,616.000000 
	C747.446838,616.000000 753.263611,616.000000 759.080383,616.000000 
	C764.908875,615.999939 770.744568,615.828247 776.562927,616.071228 
	C779.551636,616.195984 781.052307,614.842529 780.906616,612.272644 
	C780.669617,608.090698 780.371033,603.791748 779.204712,599.803528 
	C773.934692,581.782288 753.353088,579.883789 741.130981,585.477234 
	C728.780518,591.129456 722.278137,606.272278 725.032471,620.160156 
	C730.947693,649.985291 762.742004,649.556702 777.999023,637.500122 
M589.393982,586.929871 
	C577.192261,580.111755 564.160583,582.394714 555.280579,589.348816 
	C541.589905,600.070190 541.844849,625.413574 553.547363,637.104248 
	C560.634521,644.184143 569.310608,645.460876 578.733032,645.047913 
	C587.241516,644.675110 594.531677,642.030090 600.018066,635.308899 
	C596.048645,627.175781 594.039001,626.424500 586.470764,630.155762 
	C585.748352,630.511963 585.040771,630.901733 584.303833,631.224792 
	C571.321167,636.915894 561.462952,629.818176 561.238953,616.000000 
	C562.882324,616.000000 564.522339,616.000000 566.162292,616.000000 
	C576.318848,616.000000 586.476990,616.086670 596.630188,615.903076 
	C598.090698,615.876648 600.479065,614.852539 600.823792,613.774109 
	C603.406677,605.694214 597.525513,591.867065 589.393982,586.929871 
M521.000000,621.501587 
	C521.000000,628.932251 521.000000,636.362976 521.000000,643.712769 
	C526.313293,643.712769 531.051208,643.712769 535.999634,643.712769 
	C535.999634,629.122131 536.302795,614.808350 535.859009,600.517761 
	C535.665649,594.291260 532.327515,589.124695 526.631165,585.952637 
	C516.254456,580.174255 506.927948,582.940979 498.188995,589.738220 
	C495.086212,583.312378 492.999664,582.621277 483.303131,584.594727 
	C483.303131,604.353760 483.303131,624.086426 483.303131,643.694824 
	C488.682007,643.694824 493.753540,643.694824 499.000000,643.694824 
	C499.000000,631.746521 499.000000,620.102600 499.000000,608.458679 
	C499.000000,599.399231 499.408875,598.860535 508.527252,595.904480 
	C514.131775,594.087585 519.089050,596.574158 519.891113,602.332764 
	C520.725708,608.324585 520.667664,614.440857 521.000000,621.501587 
M657.000000,613.510742 
	C657.000000,610.179382 657.143982,606.840637 656.971802,603.518188 
	C656.531982,595.033081 652.592102,588.634155 644.861023,585.005493 
	C634.540100,580.161194 616.745117,583.816895 609.037903,592.776611 
	C611.526794,600.538879 614.552490,602.238708 623.520142,597.843811 
	C624.244202,597.489075 624.954590,597.103638 625.691956,596.779358 
	C634.337585,592.975952 639.112549,595.158752 641.541443,604.014832 
	C642.858032,608.815308 642.010376,609.894348 637.068481,610.011902 
	C628.572510,610.213989 620.341919,611.456970 613.092285,616.394836 
	C606.464111,620.909424 604.152771,627.677551 607.097107,635.881836 
	C608.735046,640.445984 614.120911,644.928650 621.691956,645.160828 
	C630.018066,645.416077 637.325012,643.599854 643.846436,637.927856 
	C643.631958,644.667175 647.576782,644.691589 657.000000,643.392395 
	C657.000000,633.785461 657.000000,624.146179 657.000000,613.510742 
M993.967529,599.640503 
	C992.308594,597.064941 990.451416,594.593628 989.032227,591.892151 
	C986.107605,586.325073 982.517944,582.440613 975.370850,583.904541 
	C972.533386,584.485779 969.477417,584.000000 965.702515,584.000000 
	C970.761841,591.571960 975.249634,598.792664 980.255737,605.634094 
	C984.918701,612.006653 985.158752,611.827393 981.125549,618.525696 
	C980.216125,620.036011 979.383484,621.594788 978.427917,623.074768 
	C974.005005,629.925110 969.551270,636.755432 964.844238,644.000000 
	C968.677063,644.000000 971.854431,643.706604 974.955261,644.068481 
	C979.659973,644.617676 982.554565,642.829224 984.898132,638.740417 
	C988.143005,633.078918 992.000366,627.768433 995.513367,622.432190 
	C999.413025,628.837219 1003.242249,635.346619 1007.350891,641.674500 
	C1008.100464,642.828979 1009.956970,643.815674 1011.358582,643.895447 
	C1016.136597,644.167419 1020.939514,643.999573 1026.232178,643.999573 
	C1025.566162,642.388123 1025.259888,641.130676 1024.591187,640.110840 
	C1019.379456,632.162292 1014.302124,624.111938 1008.738770,616.414246 
	C1006.477295,613.285095 1006.826111,611.321106 1008.947327,608.410217 
	C1014.697510,600.519226 1020.078430,592.359131 1025.815430,584.000305 
	C1020.804810,584.000305 1016.163147,583.836426 1011.545654,584.098450 
	C1010.129150,584.178894 1008.258057,585.069580 1007.486084,586.198486 
	C1003.589661,591.896973 999.987305,597.796509 996.225037,603.714905 
	C995.598389,602.762268 994.815552,601.572388 993.967529,599.640503 
M811.807434,599.019165 
	C816.348755,598.481812 820.890015,597.944397 826.244019,597.310913 
	C826.468628,594.479553 826.627869,591.118652 827.027893,587.786621 
	C827.491577,583.923706 825.349304,583.143250 822.123108,582.960144 
	C815.146545,582.564087 809.306335,584.381042 805.743408,590.849548 
	C802.370422,589.542603 806.090942,583.433655 800.472961,583.943542 
	C797.068237,584.252502 793.612549,584.000427 790.287476,584.000427 
	C790.287476,604.322021 790.287476,624.054443 790.287476,643.710693 
	C795.652039,643.710693 800.723206,643.710693 806.000000,643.710693 
	C806.000000,633.282471 806.289978,623.130554 805.884705,613.006470 
	C805.663147,607.472168 807.429504,603.170105 811.807434,599.019165 
M357.000000,534.501343 
	C357.000000,582.779297 356.999969,631.057312 357.000092,679.335266 
	C357.000092,680.500610 356.842651,681.696045 357.056610,682.820801 
	C357.203064,683.590515 357.867706,684.261719 358.300690,684.976929 
	C358.866669,684.228455 359.621490,683.551636 359.941254,682.709656 
	C360.217560,681.981995 359.999939,681.066650 359.999939,680.234253 
	C360.000000,627.294922 360.000000,574.355591 360.000000,521.416260 
	C360.000000,519.968872 360.000000,518.521545 360.000000,516.878357 
	C357.000000,517.949463 357.000000,517.949463 357.000000,534.501343 
z"/>
<path fill="#FFFFFF" opacity="1.000000" stroke="none" 
	d="
M193.179031,640.981323 
	C188.122910,639.633545 183.410721,638.528564 178.923553,636.829285 
	C177.618530,636.335205 176.234375,634.196228 176.124573,632.719177 
	C175.638550,626.180481 180.865784,619.471130 188.606735,619.867371 
	C193.995407,620.143250 199.447815,619.174133 205.515549,618.712219 
	C202.478516,614.118469 205.543411,612.310852 207.534760,611.410278 
	C209.324127,610.600952 211.941513,611.622498 213.830139,611.801941 
	C215.078384,610.485657 216.464493,608.248962 218.472290,607.180359 
	C219.801514,606.472900 222.022232,607.440430 223.847870,607.658508 
	C224.300507,602.133057 225.491318,601.222900 231.157959,602.723022 
	C234.519272,599.900024 237.904572,597.229309 241.084564,594.333191 
	C243.782974,591.875732 246.244370,589.157898 249.973160,585.376343 
	C250.224854,581.459534 250.569016,581.160217 257.523621,580.853577 
	C257.118835,575.939880 259.508331,574.290344 264.390137,573.633728 
	C267.025787,573.279358 269.293274,570.187317 272.185028,567.980835 
	C273.764099,574.460693 277.817078,578.450012 284.790558,577.927307 
	C290.485657,577.500427 297.029877,580.358398 302.461090,574.198486 
	C302.294952,577.846252 302.808411,581.689575 301.826538,585.102722 
	C299.508270,593.161316 301.504639,600.970459 304.297485,607.919067 
	C308.615906,618.663330 307.251007,629.350647 306.759674,640.125671 
	C306.629272,642.985596 304.726959,645.163757 300.515259,645.159973 
	C279.773560,645.141296 259.031494,645.678406 238.289200,645.996094 
	C223.185654,646.227417 208.318237,644.308655 193.179031,640.981323 
M283.387756,617.998352 
	C291.399658,614.738281 293.600769,609.706604 290.118317,602.612610 
	C287.482239,597.242737 281.658020,595.127441 275.990295,597.481445 
	C271.421478,599.379028 268.500824,606.114563 270.068207,611.138855 
	C271.515747,615.778931 277.452301,619.030762 283.387756,617.998352 
M193.728500,630.963684 
	C189.515762,629.735718 185.303040,628.507690 180.611176,627.140015 
	C179.918137,629.442322 179.307785,631.469910 178.594986,633.837891 
	C188.438492,636.128479 197.560135,638.251099 206.682205,640.373840 
	C207.030380,637.736145 207.254181,636.040771 207.527176,633.972595 
	C203.290466,632.998962 198.935898,631.998291 193.728500,630.963684 
M288.476074,638.000000 
	C293.658966,637.690857 298.841888,637.381653 304.024780,637.072510 
	C303.991577,636.714966 303.958374,636.357483 303.925201,636.000000 
	C272.767303,636.000000 241.609406,636.000000 210.451508,636.000000 
	C236.038040,639.196594 261.794800,637.518372 288.476074,638.000000 
M212.287277,639.994934 
	C211.353043,639.941589 210.418808,639.888306 209.484558,639.835022 
	C240.585159,644.861145 271.741821,642.493591 302.893982,641.707214 
	C302.895935,641.138000 302.897919,640.568848 302.899902,639.999634 
	C272.977478,639.999634 243.055069,639.999634 212.287277,639.994934 
M196.232910,623.000061 
	C192.280640,623.130920 188.328369,623.261719 184.376099,623.392517 
	C187.912109,625.681885 191.352463,627.022217 194.911621,627.854370 
	C196.037476,628.117493 197.480774,627.022949 198.778763,626.549744 
	C198.233917,625.367126 197.689087,624.184509 196.232910,623.000061 
M257.588196,599.071533 
	C254.285477,596.317993 250.982758,593.564453 247.680023,590.810974 
	C247.406677,592.692261 247.871521,594.114807 248.762970,595.180420 
	C250.232208,596.936707 252.394821,598.218323 253.515930,600.137695 
	C255.603851,603.712036 256.712982,602.263916 257.588196,599.071533 
M254.664719,587.116394 
	C257.039734,589.617676 259.414764,592.118958 261.789795,594.620300 
	C262.417908,593.996948 263.046021,593.373657 263.674164,592.750366 
	C260.641876,589.876404 257.609619,587.002502 253.487061,583.095215 
	C253.832581,585.077515 253.970123,585.866638 254.664719,587.116394 
M232.992615,614.605164 
	C231.506042,611.465942 230.019455,608.326660 228.477936,605.071411 
	C225.095322,608.074951 228.993103,610.567566 228.934006,613.246155 
	C228.854492,616.851379 230.653336,616.450623 232.992615,614.605164 
M250.067215,604.609619 
	C247.483322,602.154358 244.899429,599.699097 242.194031,597.128357 
	C241.789871,597.858826 240.926163,598.920959 241.112869,599.158936 
	C243.186188,601.801270 245.359741,604.377869 247.720566,606.759705 
	C247.932709,606.973755 249.639969,605.705994 250.067215,604.609619 
M262.898468,577.373535 
	C262.268127,577.712036 261.637787,578.050598 261.007477,578.389160 
	C262.908661,580.913940 264.716248,583.522583 266.816742,585.868958 
	C267.115723,586.202881 268.836273,585.264221 269.448639,585.062683 
	C267.302399,582.533142 265.354187,580.236877 262.898468,577.373535 
M237.975174,609.834045 
	C239.053085,610.692993 240.130981,611.551880 241.208893,612.410828 
	C241.428482,612.068665 241.648087,611.726440 241.867691,611.384277 
	C240.349243,608.220886 238.830795,605.057556 237.142960,601.541260 
	C233.776794,604.704346 236.928375,606.793823 237.975174,609.834045 
M219.392563,617.910706 
	C220.583435,617.974487 221.774323,618.038208 222.965195,618.101990 
	C221.769272,615.298645 220.573364,612.495361 219.377441,609.692017 
	C218.951767,609.863403 218.526093,610.034790 218.100433,610.206177 
	C218.409943,612.521790 218.719467,614.837402 219.392563,617.910706 
z"/>
<path fill="#FFFFFF" opacity="1.000000" stroke="none" 
	d="
M886.590576,639.785645 
	C880.171509,641.317871 874.135864,643.461121 867.995361,643.822815 
	C857.224182,644.457275 846.388733,644.000000 834.790649,644.000000 
	C834.790649,616.003174 834.790649,588.212158 834.790649,561.005554 
	C849.063782,561.005554 863.876465,559.758057 878.384033,561.329163 
	C895.552612,563.188293 899.853516,581.822144 892.979553,591.464172 
	C890.517944,594.917114 887.026611,597.636047 883.931946,600.763977 
	C890.946594,602.935669 896.973816,607.296265 897.925293,615.840271 
	C899.036011,625.814087 895.942505,634.154907 886.590576,639.785645 
M852.000000,610.651733 
	C852.000000,617.396851 852.000000,624.141968 852.000000,631.000000 
	C858.138733,631.000000 863.621521,631.112183 869.097839,630.971313 
	C875.796448,630.799072 880.457764,626.529175 881.024536,620.598755 
	C881.837524,612.090881 877.679016,609.107056 872.473083,608.169006 
	C866.706177,607.129761 860.716675,607.213440 854.819458,607.127075 
	C853.892334,607.113464 852.940552,608.787415 852.000000,610.651733 
M855.628052,596.000000 
	C860.353760,595.666504 865.267151,596.008484 869.740356,594.765930 
	C872.806091,593.914429 876.286987,591.400879 877.736938,588.655579 
	C879.730103,584.881775 879.705444,580.125000 876.091858,576.659424 
	C869.038513,569.895020 860.308960,572.687500 852.000061,571.921204 
	C852.000061,579.367676 852.029175,586.016968 851.981873,592.665710 
	C851.968140,594.593262 851.776306,596.486633 855.628052,596.000000 
z"/>
<path fill="#FFFFFF" opacity="1.000000" stroke="none" 
	d="
M453.893494,644.039429 
	C441.604156,646.765686 430.637054,644.615723 420.520477,637.974854 
	C419.036163,637.000488 417.694336,635.809204 415.752899,634.304749 
	C417.609375,631.329956 419.048553,627.780090 421.600098,625.446655 
	C422.927032,624.233215 426.461700,624.499268 428.571960,625.268555 
	C433.180603,626.948914 437.357300,629.862488 442.001282,631.385498 
	C448.606659,633.551697 459.867828,628.925171 457.890045,618.251648 
	C456.750854,612.103760 450.896210,610.914490 445.971588,608.979858 
	C440.035980,606.648132 433.633270,604.955200 428.435059,601.484497 
	C424.792389,599.052368 421.181580,594.414062 420.400085,590.229980 
	C417.081116,572.460144 427.330078,559.612976 445.127960,559.078308 
	C458.622375,558.672974 463.059235,560.333069 473.111237,567.630981 
	C472.101379,569.667053 471.125488,571.817200 469.992920,573.881348 
	C467.391357,578.622803 464.411377,579.372681 459.907959,576.401489 
	C454.910797,573.104614 449.419312,570.771301 443.701202,573.212524 
	C440.664062,574.509216 437.550232,577.522156 436.249023,580.529602 
	C434.451965,584.683044 437.174469,588.266602 441.186981,589.948547 
	C447.667847,592.665405 454.402557,594.774353 460.897522,597.460571 
	C467.809082,600.319031 473.095490,605.032654 473.923553,612.881653 
	C475.115753,624.182556 473.132080,634.495605 462.319031,640.863647 
	C459.883514,642.297974 457.003937,642.978149 453.893494,644.039429 
z"/>
<path fill="#FFFFFF" opacity="1.000000" stroke="none" 
	d="
M685.000000,621.206787 
	C685.000000,628.976074 685.000000,636.269226 685.000000,643.778381 
	C679.581726,643.778381 674.510742,643.778381 669.218872,643.778381 
	C669.218872,614.911926 669.218872,586.178223 669.218872,557.222046 
	C674.417419,557.222046 679.488403,557.222046 684.891357,557.222046 
	C684.891357,573.785767 684.891357,590.222656 684.891357,606.938660 
	C691.975403,605.998657 693.521057,599.370300 697.608765,595.672485 
	C700.335327,593.205994 701.996399,589.571655 704.690918,587.056213 
	C706.391357,585.468811 709.053955,584.381653 711.398621,584.130432 
	C715.678528,583.671692 720.042908,584.000000 725.079956,584.000000 
	C717.562073,593.085388 710.355408,601.794739 703.151489,610.510193 
	C710.689026,621.503174 718.223755,632.489990 726.116882,643.999512 
	C720.403687,643.999512 715.296143,644.204041 710.224182,643.870178 
	C708.772278,643.774597 707.013550,642.413757 706.094910,641.131836 
	C701.116333,634.184570 696.475098,626.993958 691.437988,620.091248 
	C690.203064,618.399048 687.920898,617.470886 685.000000,615.395508 
	C685.000000,618.444519 685.000000,619.587585 685.000000,621.206787 
z"/>
<path fill="#FFFFFF" opacity="1.000000" stroke="none" 
	d="
M965.000000,613.041504 
	C965.059265,622.217773 963.008118,630.272339 956.774292,636.644226 
	C949.484985,644.095032 940.013000,646.083679 930.240967,644.825134 
	C917.438171,643.176208 907.981018,635.964783 905.699768,622.966980 
	C902.633423,605.496338 905.619080,587.821350 927.598999,583.468384 
	C948.059570,579.416321 963.884216,589.438904 965.000000,613.041504 
M945.079346,599.621826 
	C938.069641,592.520020 928.001709,593.125183 923.375122,601.273438 
	C919.956848,607.293640 919.297913,621.115356 924.743530,628.223145 
	C930.028259,635.120850 940.609314,634.747681 945.194458,627.286377 
	C950.639526,618.425903 949.554626,609.259460 945.079346,599.621826 
z"/>
<path fill="#FFFFFF" opacity="1.000000" stroke="none" 
	d="
M777.734009,637.759827 
	C762.742004,649.556702 730.947693,649.985291 725.032471,620.160156 
	C722.278137,606.272278 728.780518,591.129456 741.130981,585.477234 
	C753.353088,579.883789 773.934692,581.782288 779.204712,599.803528 
	C780.371033,603.791748 780.669617,608.090698 780.906616,612.272644 
	C781.052307,614.842529 779.551636,616.195984 776.562927,616.071228 
	C770.744568,615.828247 764.908875,615.999939 759.080383,616.000000 
	C753.263611,616.000000 747.446838,616.000000 741.665588,616.000000 
	C739.572876,626.651978 750.261108,635.893921 760.841858,632.603210 
	C764.013367,631.616882 766.914612,629.790039 770.002686,628.499146 
	C773.392517,627.082031 779.757019,631.066833 779.859985,634.776001 
	C779.884705,635.666077 778.652893,636.591125 777.734009,637.759827 
M747.730591,595.833130 
	C745.227295,599.193115 742.723999,602.553162 739.577332,606.776672 
	C749.462952,606.776672 757.676697,606.776672 766.297974,606.776672 
	C765.930481,604.930420 765.849731,603.282898 765.272339,601.833130 
	C762.307678,594.388550 758.117310,592.805603 747.730591,595.833130 
z"/>
<path fill="#FFFFFF" opacity="1.000000" stroke="none" 
	d="
M589.678772,587.184509 
	C597.525513,591.867065 603.406677,605.694214 600.823792,613.774109 
	C600.479065,614.852539 598.090698,615.876648 596.630188,615.903076 
	C586.476990,616.086670 576.318848,616.000000 566.162292,616.000000 
	C564.522339,616.000000 562.882324,616.000000 561.238953,616.000000 
	C561.462952,629.818176 571.321167,636.915894 584.303833,631.224792 
	C585.040771,630.901733 585.748352,630.511963 586.470764,630.155762 
	C594.039001,626.424500 596.048645,627.175781 600.018066,635.308899 
	C594.531677,642.030090 587.241516,644.675110 578.733032,645.047913 
	C569.310608,645.460876 560.634521,644.184143 553.547363,637.104248 
	C541.844849,625.413574 541.589905,600.070190 555.280579,589.348816 
	C564.160583,582.394714 577.192261,580.111755 589.678772,587.184509 
M585.975037,602.848877 
	C583.846069,597.118958 579.839539,593.688049 573.621216,594.085083 
	C567.046936,594.505005 563.258423,598.870361 561.579224,606.938721 
	C569.868103,606.938721 578.150879,606.938721 586.445068,606.938721 
	C586.290649,605.806396 586.144653,604.735413 585.975037,602.848877 
z"/>
<path fill="#FFFFFF" opacity="1.000000" stroke="none" 
	d="
M521.000000,621.002136 
	C520.667664,614.440857 520.725708,608.324585 519.891113,602.332764 
	C519.089050,596.574158 514.131775,594.087585 508.527252,595.904480 
	C499.408875,598.860535 499.000000,599.399231 499.000000,608.458679 
	C499.000000,620.102600 499.000000,631.746521 499.000000,643.694824 
	C493.753540,643.694824 488.682007,643.694824 483.303131,643.694824 
	C483.303131,624.086426 483.303131,604.353760 483.303131,584.594727 
	C492.999664,582.621277 495.086212,583.312378 498.188995,589.738220 
	C506.927948,582.940979 516.254456,580.174255 526.631165,585.952637 
	C532.327515,589.124695 535.665649,594.291260 535.859009,600.517761 
	C536.302795,614.808350 535.999634,629.122131 535.999634,643.712769 
	C531.051208,643.712769 526.313293,643.712769 521.000000,643.712769 
	C521.000000,636.362976 521.000000,628.932251 521.000000,621.002136 
z"/>
<path fill="#FFFFFF" opacity="1.000000" stroke="none" 
	d="
M657.000000,614.008850 
	C657.000000,624.146179 657.000000,633.785461 657.000000,643.392395 
	C647.576782,644.691589 643.631958,644.667175 643.846436,637.927856 
	C637.325012,643.599854 630.018066,645.416077 621.691956,645.160828 
	C614.120911,644.928650 608.735046,640.445984 607.097107,635.881836 
	C604.152771,627.677551 606.464111,620.909424 613.092285,616.394836 
	C620.341919,611.456970 628.572510,610.213989 637.068481,610.011902 
	C642.010376,609.894348 642.858032,608.815308 641.541443,604.014832 
	C639.112549,595.158752 634.337585,592.975952 625.691956,596.779358 
	C624.954590,597.103638 624.244202,597.489075 623.520142,597.843811 
	C614.552490,602.238708 611.526794,600.538879 609.037903,592.776611 
	C616.745117,583.816895 634.540100,580.161194 644.861023,585.005493 
	C652.592102,588.634155 656.531982,595.033081 656.971802,603.518188 
	C657.143982,606.840637 657.000000,610.179382 657.000000,614.008850 
M621.402344,627.075195 
	C620.711609,630.688354 622.394958,632.824402 625.672791,634.006653 
	C634.854431,637.318420 643.120544,629.600342 641.433411,618.706116 
	C637.366089,619.470947 633.128784,619.753174 629.305237,621.160095 
	C626.564819,622.168396 624.378235,624.681885 621.402344,627.075195 
z"/>
<path fill="#FFFFFF" opacity="1.000000" stroke="none" 
	d="
M994.000122,600.011475 
	C994.815552,601.572388 995.598389,602.762268 996.225037,603.714905 
	C999.987305,597.796509 1003.589661,591.896973 1007.486084,586.198486 
	C1008.258057,585.069580 1010.129150,584.178894 1011.545654,584.098450 
	C1016.163147,583.836426 1020.804810,584.000305 1025.815430,584.000305 
	C1020.078430,592.359131 1014.697510,600.519226 1008.947327,608.410217 
	C1006.826111,611.321106 1006.477295,613.285095 1008.738770,616.414246 
	C1014.302124,624.111938 1019.379456,632.162292 1024.591187,640.110840 
	C1025.259888,641.130676 1025.566162,642.388123 1026.232178,643.999573 
	C1020.939514,643.999573 1016.136597,644.167419 1011.358582,643.895447 
	C1009.956970,643.815674 1008.100464,642.828979 1007.350891,641.674500 
	C1003.242249,635.346619 999.413025,628.837219 995.513367,622.432190 
	C992.000366,627.768433 988.143005,633.078918 984.898132,638.740417 
	C982.554565,642.829224 979.659973,644.617676 974.955261,644.068481 
	C971.854431,643.706604 968.677063,644.000000 964.844238,644.000000 
	C969.551270,636.755432 974.005005,629.925110 978.427917,623.074768 
	C979.383484,621.594788 980.216125,620.036011 981.125549,618.525696 
	C985.158752,611.827393 984.918701,612.006653 980.255737,605.634094 
	C975.249634,598.792664 970.761841,591.571960 965.702515,584.000000 
	C969.477417,584.000000 972.533386,584.485779 975.370850,583.904541 
	C982.517944,582.440613 986.107605,586.325073 989.032227,591.892151 
	C990.451416,594.593628 992.308594,597.064941 994.000122,600.011475 
z"/>
<path fill="#FFFFFF" opacity="1.000000" stroke="none" 
	d="
M811.457764,599.191772 
	C807.429504,603.170105 805.663147,607.472168 805.884705,613.006470 
	C806.289978,623.130554 806.000000,633.282471 806.000000,643.710693 
	C800.723206,643.710693 795.652039,643.710693 790.287476,643.710693 
	C790.287476,624.054443 790.287476,604.322021 790.287476,584.000427 
	C793.612549,584.000427 797.068237,584.252502 800.472961,583.943542 
	C806.090942,583.433655 802.370422,589.542603 805.743408,590.849548 
	C809.306335,584.381042 815.146545,582.564087 822.123108,582.960144 
	C825.349304,583.143250 827.491577,583.923706 827.027893,587.786621 
	C826.627869,591.118652 826.468628,594.479553 826.244019,597.310913 
	C820.890015,597.944397 816.348755,598.481812 811.457764,599.191772 
z"/>
<path fill="#FFFFFF" opacity="1.000000" stroke="none" 
	d="
M357.000000,534.001770 
	C357.000000,517.949463 357.000000,517.949463 360.000000,516.878357 
	C360.000000,518.521545 360.000000,519.968872 360.000000,521.416260 
	C360.000000,574.355591 360.000000,627.294922 359.999939,680.234253 
	C359.999939,681.066650 360.217560,681.981995 359.941254,682.709656 
	C359.621490,683.551636 358.866669,684.228455 358.300659,684.976929 
	C357.867706,684.261719 357.203064,683.590515 357.056610,682.820801 
	C356.842651,681.696045 357.000092,680.500610 357.000092,679.335266 
	C356.999969,631.057312 357.000000,582.779297 357.000000,534.001770 
z"/>
<path fill="#000000" opacity="1.000000" stroke="none" 
	d="
M282.992676,618.000122 
	C277.452301,619.030762 271.515747,615.778931 270.068207,611.138855 
	C268.500824,606.114563 271.421478,599.379028 275.990295,597.481445 
	C281.658020,595.127441 287.482239,597.242737 290.118317,602.612610 
	C293.600769,609.706604 291.399658,614.738281 282.992676,618.000122 
M283.995270,613.460327 
	C284.152863,613.511719 284.307709,613.587646 284.469055,613.605896 
	C284.577942,613.618286 284.783295,613.570984 284.797546,613.513550 
	C285.490204,610.719971 286.166809,607.922363 286.726898,605.613037 
	C284.774170,604.110657 282.468994,602.337097 280.471222,600.800049 
	C278.497040,602.357056 276.147217,604.210388 274.141113,605.792542 
	C274.938751,608.186401 275.899841,611.070679 276.553162,613.031372 
	C279.071289,613.031372 281.202637,613.031372 283.995270,613.460327 
z"/>
<path fill="#000000" opacity="1.000000" stroke="none" 
	d="
M194.154907,630.980591 
	C198.935898,631.998291 203.290466,632.998962 207.527176,633.972595 
	C207.254181,636.040771 207.030380,637.736145 206.682205,640.373840 
	C197.560135,638.251099 188.438492,636.128479 178.594986,633.837891 
	C179.307785,631.469910 179.918137,629.442322 180.611176,627.140015 
	C185.303040,628.507690 189.515762,629.735718 194.154907,630.980591 
z"/>
<path fill="#000000" opacity="1.000000" stroke="none" 
	d="
M287.979675,638.000000 
	C261.794800,637.518372 236.038040,639.196594 210.451508,636.000000 
	C241.609406,636.000000 272.767303,636.000000 303.925201,636.000000 
	C303.958374,636.357483 303.991577,636.714966 304.024780,637.072510 
	C298.841888,637.381653 293.658966,637.690857 287.979675,638.000000 
z"/>
<path fill="#000000" opacity="1.000000" stroke="none" 
	d="
M212.709961,639.997314 
	C243.055069,639.999634 272.977478,639.999634 302.899902,639.999634 
	C302.897919,640.568848 302.895935,641.138000 302.893982,641.707214 
	C271.741821,642.493591 240.585159,644.861145 209.484558,639.835022 
	C210.418808,639.888306 211.353043,639.941589 212.709961,639.997314 
z"/>
<path fill="#000000" opacity="1.000000" stroke="none" 
	d="
M196.688568,623.000977 
	C197.689087,624.184509 198.233917,625.367126 198.778778,626.549744 
	C197.480774,627.022949 196.037476,628.117493 194.911621,627.854370 
	C191.352463,627.022217 187.912109,625.681885 184.376099,623.392517 
	C188.328369,623.261719 192.280640,623.130920 196.688568,623.000977 
z"/>
<path fill="#000000" opacity="1.000000" stroke="none" 
	d="
M257.777679,599.398438 
	C256.712982,602.263916 255.603851,603.712036 253.515930,600.137695 
	C252.394821,598.218323 250.232208,596.936707 248.762970,595.180420 
	C247.871521,594.114807 247.406677,592.692261 247.680023,590.810974 
	C250.982758,593.564453 254.285477,596.317993 257.777679,599.398438 
z"/>
<path fill="#000000" opacity="1.000000" stroke="none" 
	d="
M254.386200,586.886108 
	C253.970123,585.866638 253.832581,585.077515 253.487061,583.095215 
	C257.609619,587.002502 260.641876,589.876404 263.674164,592.750366 
	C263.046021,593.373657 262.417908,593.996948 261.789795,594.620300 
	C259.414764,592.118958 257.039734,589.617676 254.386200,586.886108 
z"/>
<path fill="#000000" opacity="1.000000" stroke="none" 
	d="
M232.965271,615.028198 
	C230.653336,616.450623 228.854492,616.851379 228.934006,613.246155 
	C228.993103,610.567566 225.095322,608.074951 228.477936,605.071411 
	C230.019455,608.326660 231.506042,611.465942 232.965271,615.028198 
z"/>
<path fill="#000000" opacity="1.000000" stroke="none" 
	d="
M250.360046,604.868042 
	C249.639969,605.705994 247.932709,606.973755 247.720566,606.759705 
	C245.359741,604.377869 243.186188,601.801270 241.112869,599.158936 
	C240.926163,598.920959 241.789871,597.858826 242.194031,597.128357 
	C244.899429,599.699097 247.483322,602.154358 250.360046,604.868042 
z"/>
<path fill="#000000" opacity="1.000000" stroke="none" 
	d="
M263.152222,577.657104 
	C265.354187,580.236877 267.302399,582.533142 269.448639,585.062683 
	C268.836273,585.264221 267.115723,586.202881 266.816742,585.868958 
	C264.716248,583.522583 262.908661,580.913940 261.007477,578.389160 
	C261.637787,578.050598 262.268127,577.712036 263.152222,577.657104 
z"/>
<path fill="#000000" opacity="1.000000" stroke="none" 
	d="
M237.800018,609.466187 
	C236.928375,606.793823 233.776794,604.704346 237.142960,601.541260 
	C238.830795,605.057556 240.349243,608.220886 241.867691,611.384277 
	C241.648087,611.726440 241.428482,612.068665 241.208893,612.410828 
	C240.130981,611.551880 239.053085,610.692993 237.800018,609.466187 
z"/>
<path fill="#000000" opacity="1.000000" stroke="none" 
	d="
M219.210785,617.531860 
	C218.719467,614.837402 218.409943,612.521790 218.100433,610.206177 
	C218.526093,610.034790 218.951767,609.863403 219.377441,609.692017 
	C220.573364,612.495361 221.769272,615.298645 222.965195,618.101929 
	C221.774323,618.038208 220.583435,617.974487 219.210785,617.531860 
z"/>
<path fill="#000000" opacity="1.000000" stroke="none" 
	d="
M852.000122,610.166382 
	C852.940552,608.787415 853.892334,607.113464 854.819458,607.127075 
	C860.716675,607.213440 866.706177,607.129761 872.473083,608.169006 
	C877.679016,609.107056 881.837524,612.090881 881.024536,620.598755 
	C880.457764,626.529175 875.796448,630.799072 869.097839,630.971313 
	C863.621521,631.112183 858.138733,631.000000 852.000000,631.000000 
	C852.000000,624.141968 852.000000,617.396851 852.000122,610.166382 
z"/>
<path fill="#000000" opacity="1.000000" stroke="none" 
	d="
M855.146179,595.999878 
	C851.776306,596.486633 851.968140,594.593262 851.981873,592.665710 
	C852.029175,586.016968 852.000061,579.367676 852.000061,571.921204 
	C860.308960,572.687500 869.038513,569.895020 876.091858,576.659424 
	C879.705444,580.125000 879.730103,584.881775 877.736938,588.655579 
	C876.286987,591.400879 872.806091,593.914429 869.740356,594.765930 
	C865.267151,596.008484 860.353760,595.666504 855.146179,595.999878 
z"/>
<path fill="#000000" opacity="1.000000" stroke="none" 
	d="
M945.373596,599.879395 
	C949.554626,609.259460 950.639526,618.425903 945.194458,627.286377 
	C940.609314,634.747681 930.028259,635.120850 924.743530,628.223145 
	C919.297913,621.115356 919.956848,607.293640 923.375122,601.273438 
	C928.001709,593.125183 938.069641,592.520020 945.373596,599.879395 
z"/>
<path fill="#000000" opacity="1.000000" stroke="none" 
	d="
M747.987427,595.530762 
	C758.117310,592.805603 762.307678,594.388550 765.272339,601.833130 
	C765.849731,603.282898 765.930481,604.930420 766.297974,606.776672 
	C757.676697,606.776672 749.462952,606.776672 739.577332,606.776672 
	C742.723999,602.553162 745.227295,599.193115 747.987427,595.530762 
z"/>
<path fill="#000000" opacity="1.000000" stroke="none" 
	d="
M585.986816,603.256714 
	C586.144653,604.735413 586.290649,605.806396 586.445068,606.938721 
	C578.150879,606.938721 569.868103,606.938721 561.579224,606.938721 
	C563.258423,598.870361 567.046936,594.505005 573.621216,594.085083 
	C579.839539,593.688049 583.846069,597.118958 585.986816,603.256714 
z"/>
<path fill="#000000" opacity="1.000000" stroke="none" 
	d="
M621.673462,626.799500 
	C624.378235,624.681885 626.564819,622.168396 629.305237,621.160095 
	C633.128784,619.753174 637.366089,619.470947 641.433411,618.706116 
	C643.120544,629.600342 634.854431,637.318420 625.672791,634.006653 
	C622.394958,632.824402 620.711609,630.688354 621.673462,626.799500 
z"/>
<path fill="#FFFFFF" opacity="1.000000" stroke="none" 
	d="
M283.664612,613.245850 
	C281.202637,613.031372 279.071289,613.031372 276.553162,613.031372 
	C275.899841,611.070679 274.938751,608.186401 274.141113,605.792542 
	C276.147217,604.210388 278.497040,602.357056 280.471222,600.800049 
	C282.468994,602.337097 284.774170,604.110657 286.726898,605.613037 
	C286.166809,607.922363 285.490204,610.719971 284.797546,613.513550 
	C284.783295,613.570984 284.577942,613.618286 284.469055,613.605896 
	C284.307709,613.587646 284.152863,613.511719 283.664612,613.245850 
z"/>
</svg>