<svg id="svg" version="1.1" xmlns="http://www.w3.org/2000/svg" xmlns:xlink="http://www.w3.org/1999/xlink" width="400" height="400" viewBox="60, 60, 300,300"><g id="svgg"><path id="path0" d="" stroke="none" fill="#040404" fill-rule="evenodd"></path><path id="path1" d="" stroke="none" fill="#080404" fill-rule="evenodd"></path><path id="path2" d="M119.159 200.000 C 119.159 215.308,119.200 221.571,119.250 213.917 C 119.300 206.263,119.300 193.738,119.250 186.083 C 119.200 178.429,119.159 184.692,119.159 200.000 M223.333 199.833 L 223.333 214.000 225.500 214.000 L 227.667 214.000 227.667 209.480 L 227.667 204.960 228.896 205.063 C 230.067 205.162,230.266 205.374,233.133 209.583 L 236.141 214.000 238.423 214.000 C 240.158 214.000,240.647 213.900,240.461 213.583 C 239.560 212.052,233.927 204.021,233.513 203.678 C 233.070 203.310,233.209 203.031,234.586 201.517 C 235.455 200.561,237.115 198.628,238.273 197.223 L 240.380 194.667 238.050 194.667 L 235.720 194.667 232.803 198.333 C 230.140 201.682,229.791 202.000,228.777 202.000 L 227.667 202.000 227.667 193.833 L 227.667 185.667 225.500 185.667 L 223.333 185.667 223.333 199.833 M145.000 187.027 C 138.970 189.756,138.359 197.821,143.968 200.642 C 144.627 200.973,146.421 201.647,147.955 202.140 C 152.247 203.517,153.333 204.621,152.863 207.127 C 152.185 210.740,147.741 211.611,143.163 209.027 C 141.051 207.835,140.786 207.904,139.571 209.967 L 138.975 210.978 140.356 211.978 C 146.461 216.400,154.973 214.494,156.815 208.293 C 158.367 203.066,156.523 200.336,149.883 198.036 C 144.627 196.215,143.402 194.769,144.808 192.048 C 145.815 190.102,149.959 189.655,152.833 191.183 C 154.742 192.198,155.095 192.107,155.981 190.371 L 156.659 189.042 155.802 188.368 C 153.244 186.356,147.938 185.697,145.000 187.027 M278.333 200.191 L 278.333 214.048 285.250 213.941 C 292.084 213.835,292.190 213.822,294.108 212.880 C 299.828 210.071,300.074 203.001,294.537 200.515 L 292.908 199.784 294.432 198.891 C 298.997 196.215,298.755 190.093,293.988 187.661 C 292.146 186.721,289.097 186.339,283.417 186.336 L 278.333 186.333 278.333 200.191 M89.186 190.308 C 88.511 191.016,88.009 191.275,87.578 191.139 C 86.680 190.854,85.580 191.942,85.816 192.882 C 86.031 193.740,85.675 194.084,85.002 193.668 C 84.218 193.183,83.278 193.928,83.396 194.940 C 83.482 195.682,83.378 195.821,82.783 195.760 C 81.841 195.663,81.215 196.455,81.413 197.493 C 81.552 198.215,81.475 198.298,80.824 198.134 C 80.303 198.004,79.930 198.153,79.601 198.624 C 79.339 198.997,78.723 199.455,78.230 199.643 C 77.664 199.858,77.333 200.233,77.333 200.658 C 77.333 201.030,77.183 201.333,77.000 201.333 C 76.817 201.333,76.667 201.183,76.667 201.000 C 76.667 200.386,75.033 200.649,74.674 201.320 C 74.482 201.679,74.344 202.092,74.368 202.236 C 74.489 202.962,74.272 203.047,73.675 202.508 C 72.885 201.792,71.115 202.618,71.468 203.537 C 71.754 204.281,70.700 204.506,70.191 203.810 C 69.576 202.969,67.836 204.003,68.109 205.047 C 68.346 205.954,67.126 206.383,63.955 206.509 C 60.221 206.657,59.304 207.246,58.666 209.907 C 58.337 211.278,58.566 211.458,61.739 212.329 C 68.971 214.313,69.859 214.399,84.938 214.571 C 101.257 214.758,101.223 214.761,101.526 213.147 C 102.052 210.342,101.850 205.546,101.119 203.500 C 99.707 199.542,99.476 196.693,100.202 192.167 C 100.329 191.377,100.289 191.283,100.014 191.721 C 99.531 192.491,97.405 192.780,94.210 192.510 L 91.500 192.280 90.833 190.780 L 90.167 189.279 89.186 190.308 M291.176 190.732 C 292.331 191.258,293.000 192.625,293.000 194.458 C 293.000 197.469,290.862 198.667,285.484 198.667 L 283.000 198.667 283.000 194.500 L 283.000 190.333 286.651 190.333 C 288.772 190.333,290.668 190.500,291.176 190.732 M88.684 193.059 C 90.009 194.480,90.018 195.343,88.709 195.326 C 88.007 195.317,86.215 192.790,86.459 192.154 C 86.763 191.362,87.308 191.583,88.684 193.059 M86.277 195.333 C 87.796 196.707,88.029 197.785,86.830 197.893 C 85.950 197.973,83.576 195.290,83.864 194.541 C 84.176 193.728,84.688 193.896,86.277 195.333 M168.500 195.117 C 167.583 195.544,166.627 196.143,166.376 196.447 C 165.681 197.287,165.171 197.114,164.819 195.917 C 164.524 194.914,164.382 194.826,162.917 194.732 L 161.333 194.630 161.333 204.482 L 161.333 214.333 163.333 214.333 L 165.333 214.333 165.336 207.083 L 165.338 199.833 166.419 199.103 C 168.554 197.660,170.244 197.337,171.843 198.065 C 173.496 198.818,173.667 199.684,173.667 207.317 L 173.667 214.333 175.833 214.333 L 178.000 214.333 177.998 207.417 C 177.997 203.457,177.841 199.930,177.632 199.167 C 176.520 195.096,172.432 193.283,168.500 195.117 M188.455 194.696 C 181.763 196.636,179.636 206.653,184.816 211.834 C 187.886 214.904,194.276 215.236,197.848 212.511 C 199.216 211.468,199.239 211.315,198.205 210.113 L 197.409 209.188 195.559 210.094 C 190.981 212.335,187.035 210.642,186.212 206.083 L 186.017 205.000 192.258 204.995 C 199.735 204.989,199.478 205.097,199.260 202.059 C 198.857 196.427,193.972 193.097,188.455 194.696 M207.271 194.975 C 205.677 195.599,203.333 196.929,203.333 197.210 C 203.333 199.054,204.875 199.722,206.833 198.725 C 209.083 197.579,211.984 197.504,213.044 198.564 C 213.844 199.362,214.408 203.000,213.732 203.000 C 207.468 203.000,202.333 205.818,202.333 209.256 C 202.333 214.358,208.325 216.170,213.115 212.517 C 214.518 211.447,214.566 211.452,214.838 212.687 C 215.074 213.764,216.013 214.333,217.549 214.333 L 218.389 214.333 218.275 206.917 C 218.152 198.871,217.960 197.979,215.945 196.099 C 214.021 194.305,210.239 193.815,207.271 194.975 M247.876 194.802 C 242.271 196.888,240.092 204.217,243.370 209.957 C 245.990 214.543,252.799 215.761,257.699 212.518 C 259.221 211.511,259.258 211.337,258.211 210.120 L 257.422 209.203 255.337 210.138 C 250.658 212.238,246.991 210.555,246.153 205.924 L 245.928 204.681 252.548 204.590 L 259.167 204.500 259.275 203.000 C 259.708 197.040,253.622 192.664,247.876 194.802 M269.471 196.153 C 267.663 198.064,267.333 198.139,267.333 196.638 C 267.333 194.938,267.054 194.667,265.298 194.667 L 263.667 194.667 263.667 204.333 L 263.667 214.000 265.667 214.000 L 267.667 214.000 267.667 208.134 C 267.667 200.111,268.222 198.972,272.281 198.667 L 274.494 198.500 274.753 196.690 C 275.057 194.565,274.864 194.346,272.679 194.338 C 271.307 194.334,271.058 194.475,269.471 196.153 M307.167 195.132 C 297.983 199.716,301.011 214.333,311.144 214.333 C 318.045 214.333,322.532 207.454,320.203 200.443 C 318.510 195.344,312.029 192.704,307.167 195.132 M336.593 194.750 C 335.958 195.244,332.333 200.845,332.333 201.330 C 332.333 202.396,331.241 201.241,329.340 198.163 L 327.180 194.667 324.923 194.667 C 322.157 194.667,322.080 194.197,325.721 199.525 L 328.775 203.995 325.554 208.829 C 321.741 214.552,321.870 214.000,324.346 214.000 L 326.358 214.000 328.667 210.453 C 329.937 208.502,331.047 206.739,331.133 206.536 C 331.357 206.010,332.194 207.092,334.431 210.800 L 336.361 214.000 338.719 214.000 L 341.077 214.000 340.593 213.250 C 340.326 212.838,338.884 210.611,337.388 208.302 C 334.096 203.223,334.065 204.244,337.667 199.054 C 339.317 196.677,340.667 194.642,340.667 194.533 C 340.667 194.148,337.122 194.338,336.593 194.750 M84.449 198.012 C 85.782 199.392,85.994 199.772,85.658 200.177 C 85.020 200.946,84.603 200.754,83.050 198.978 C 80.573 196.146,81.818 195.285,84.449 198.012 M193.726 198.032 C 194.626 198.513,195.664 200.325,195.665 201.417 L 195.667 202.333 191.000 202.333 C 186.518 202.333,186.333 202.306,186.333 201.650 C 186.333 198.508,190.660 196.391,193.726 198.032 M253.151 197.805 C 254.486 198.363,255.290 199.473,255.559 201.131 L 255.754 202.333 250.871 202.333 L 245.987 202.333 246.200 201.417 C 246.977 198.069,250.010 196.493,253.151 197.805 M313.826 198.057 C 317.320 199.649,317.205 208.606,313.667 210.437 C 309.584 212.550,306.145 209.672,306.187 204.177 C 306.227 198.827,309.595 196.129,313.826 198.057 M83.523 201.963 C 83.102 202.643,82.206 202.345,80.931 201.099 C 79.580 199.780,79.431 199.369,80.073 198.727 C 80.569 198.231,83.899 201.355,83.523 201.963 M95.339 198.890 C 97.767 200.324,97.767 204.010,95.339 205.444 C 91.843 207.509,87.976 203.924,89.831 200.337 C 90.851 198.365,93.343 197.711,95.339 198.890 M79.333 200.430 C 79.333 200.666,79.604 201.390,79.935 202.040 C 80.649 203.440,80.540 204.001,79.556 203.997 C 78.675 203.993,77.479 200.988,78.108 200.359 C 78.601 199.865,79.333 199.908,79.333 200.430 M92.872 200.547 C 92.747 200.940,92.312 201.363,91.906 201.486 C 91.455 201.624,91.329 201.779,91.583 201.884 C 91.813 201.978,92.000 202.498,92.000 203.040 C 92.000 203.908,92.075 203.983,92.643 203.680 C 92.996 203.490,93.521 203.426,93.809 203.537 C 94.181 203.679,94.333 203.539,94.333 203.055 C 94.333 202.680,94.483 202.280,94.667 202.167 C 95.213 201.829,95.045 201.333,94.384 201.333 C 94.046 201.333,93.618 200.996,93.434 200.583 L 93.098 199.833 92.872 200.547 M76.333 201.337 C 76.333 201.522,76.654 202.356,77.046 203.191 C 77.800 204.795,77.609 205.500,76.479 205.281 C 75.635 205.118,74.687 201.736,75.365 201.307 C 75.986 200.913,76.333 200.924,76.333 201.337 M292.011 202.506 C 294.814 203.955,294.481 208.609,291.485 209.861 C 290.742 210.172,289.096 210.333,286.677 210.333 L 283.000 210.333 283.000 206.167 L 283.000 202.000 287.017 202.000 C 289.955 202.000,291.296 202.136,292.011 202.506 M73.540 203.583 C 73.660 204.088,73.905 204.686,74.083 204.912 C 74.599 205.568,74.095 206.393,73.251 206.273 C 72.773 206.205,72.488 205.925,72.466 205.500 C 72.447 205.133,72.325 204.497,72.194 204.086 C 72.064 203.675,72.051 203.188,72.165 203.003 C 72.565 202.355,73.323 202.675,73.540 203.583 M70.000 204.603 C 70.000 204.935,70.208 205.491,70.463 205.839 C 71.070 206.669,70.787 207.333,69.827 207.333 C 68.398 207.333,68.321 204.034,69.750 204.005 C 69.887 204.002,70.000 204.271,70.000 204.603 M214.000 207.644 C 214.000 210.693,209.232 212.853,206.987 210.821 C 204.959 208.986,206.674 206.666,210.536 206.018 C 214.049 205.430,214.000 205.406,214.000 207.644 M66.205 208.059 C 65.916 209.502,65.961 209.488,63.571 208.888 C 59.135 207.774,59.396 207.099,64.292 207.030 L 66.417 207.000 66.205 208.059 M81.571 209.238 C 81.052 209.758,80.952 209.762,80.476 209.286 C 80.000 208.810,80.004 208.710,80.524 208.190 C 81.043 207.671,81.143 207.667,81.619 208.143 C 82.095 208.619,82.091 208.719,81.571 209.238 M86.000 208.838 C 86.000 209.327,85.085 209.758,84.637 209.481 C 84.188 209.204,84.269 208.079,84.750 207.906 C 85.266 207.721,86.000 208.269,86.000 208.838 M65.083 209.734 L 69.000 210.749 69.000 211.885 C 69.000 213.497,68.578 213.533,63.762 212.335 C 58.796 211.100,58.804 211.105,59.333 209.501 C 59.675 208.465,59.849 208.309,60.452 208.496 C 60.845 208.618,62.929 209.175,65.083 209.734 M88.500 211.500 C 92.533 211.500,97.033 211.438,98.500 211.363 C 100.730 211.248,101.183 211.311,101.269 211.749 C 101.431 212.583,97.866 212.751,83.645 212.577 C 70.666 212.419,69.237 212.307,69.556 211.474 C 69.702 211.093,70.728 211.055,75.450 211.256 C 78.594 211.390,84.467 211.500,88.500 211.500 M79.167 212.993 C 83.933 213.141,90.758 213.157,94.333 213.029 C 101.394 212.776,101.163 212.762,100.903 213.439 C 100.660 214.072,80.723 214.515,74.667 214.021 C 72.375 213.835,70.237 213.678,69.917 213.674 C 69.548 213.669,69.333 213.408,69.333 212.964 C 69.333 212.430,69.473 212.317,69.917 212.493 C 70.237 212.619,74.400 212.844,79.167 212.993 " stroke="none" fill="#000000" fill-rule="evenodd"></path><path id="path3" d="" stroke="none" fill="#080404" fill-rule="evenodd"></path></g></svg>